<svg width="57" height="57" viewBox="0 0 57 57" fill="none" xmlns="http://www.w3.org/2000/svg">
<path d="M51.6911 10.4501L51.3238 10.8174L46.0291 5.52272L46.3964 5.15539C47.0931 4.45872 48.0431 4.06606 49.0438 4.06606C50.0445 4.06606 50.9818 4.45872 51.6911 5.15539C53.1478 6.62472 53.1478 8.99339 51.6911 10.4501ZM50.5891 15.3014L52.5778 17.2901C53.3504 16.1121 53.2111 14.5034 52.1724 13.4647L43.3818 4.67406C42.7864 4.07872 42.0011 3.78739 41.2285 3.78739C40.6458 3.78739 40.0631 3.95206 39.5691 4.28139L41.8491 6.56139C42.0898 6.80206 42.0898 7.20739 41.8491 7.44806C41.7225 7.57472 41.5578 7.63806 41.4058 7.63806C41.2538 7.63806 41.0891 7.57472 40.9624 7.44806L38.6318 5.11739L36.9725 6.77672L39.3031 9.10739C39.5438 9.34806 39.5438 9.75339 39.3031 9.99406C39.1764 10.1207 39.0118 10.1714 38.8598 10.1714C38.7078 10.1714 38.5431 10.1081 38.4164 9.99406L36.0858 7.66339L34.4138 9.32272L36.7444 11.6534C36.9851 11.8941 36.9851 12.2994 36.7444 12.5527C36.6178 12.6794 36.4658 12.7301 36.3011 12.7301C36.1365 12.7301 35.9845 12.6667 35.8578 12.5527L33.5271 10.2221L31.8678 11.8814L34.1984 14.2121C34.4518 14.4527 34.4518 14.8581 34.1984 15.0987C34.0718 15.2254 33.9198 15.2887 33.7551 15.2887C33.5905 15.2887 33.4384 15.2254 33.3118 15.0987L30.9811 12.7681L29.3091 14.4401L31.6398 16.7707C31.8804 17.0114 31.8804 17.4167 31.6398 17.6574C31.5131 17.7841 31.3484 17.8347 31.1964 17.8347C31.0445 17.8347 30.8798 17.7714 30.7531 17.6574L28.4224 15.3267L26.7631 16.9861L29.0938 19.3167C29.3344 19.5574 29.3344 19.9627 29.0938 20.2034C28.9671 20.3301 28.8024 20.3807 28.6504 20.3807C28.4858 20.3807 28.3338 20.3174 28.2071 20.2034L25.8764 17.8727L24.2171 19.5321L26.5478 21.8627C26.7885 22.1034 26.7885 22.5087 26.5478 22.7494C26.4211 22.8761 26.2691 22.9394 26.1045 22.9394C25.9398 22.9394 25.7751 22.8761 25.6611 22.7494L23.3051 20.4441L21.6458 22.1034L23.9764 24.4341C24.2171 24.6747 24.2171 25.0801 23.9764 25.3207C23.8498 25.4474 23.6851 25.5107 23.5331 25.5107C23.3811 25.5107 23.2038 25.4474 23.0898 25.3207L20.8098 23.0407C20.4931 23.5347 20.3158 24.1047 20.3158 24.7001C20.3158 25.5107 20.6324 26.2834 21.2024 26.8534L21.4811 27.1321L29.7271 35.3781L30.0058 35.6567C30.5758 36.2267 31.3484 36.5434 32.1591 36.5434C32.7544 36.5434 33.3371 36.3787 33.8185 36.0494L31.8298 34.0734C31.5765 33.8327 31.5765 33.4274 31.8298 33.1867C32.0704 32.9461 32.4758 32.9461 32.7164 33.1867L34.7558 35.2261L36.4151 33.5667L34.3758 31.5274C34.1351 31.2867 34.1351 30.8814 34.3758 30.6407C34.6164 30.4001 35.0218 30.4001 35.2624 30.6407L37.3018 32.6801L38.9611 31.0207L36.9218 28.9814C36.6811 28.7407 36.6811 28.3354 36.9218 28.0947C37.1624 27.8541 37.5678 27.8541 37.8084 28.0947L39.8478 30.1341L41.5071 28.4747L39.4678 26.4354C39.2145 26.1947 39.2145 25.7894 39.4678 25.5487C39.7085 25.3081 40.1138 25.3081 40.3545 25.5487L42.3938 27.5881L44.0531 25.9287L42.0138 23.8894C41.7731 23.6487 41.7731 23.2434 42.0138 23.0027C42.2671 22.7621 42.6598 22.7621 42.9005 23.0027L44.9398 25.0421L46.5991 23.3827L44.5598 21.3434C44.3191 21.1027 44.3191 20.6974 44.5598 20.4441C44.8004 20.2034 45.2058 20.2034 45.4464 20.4441L47.4858 22.4834L49.1451 20.8241L47.1564 18.7467C46.9158 18.5061 46.9158 18.1007 47.1564 17.8601C47.3971 17.6194 47.8024 17.6194 48.0431 17.8601L50.0824 19.8994L51.7418 18.2401L49.7024 16.2007C49.4491 15.9601 49.4491 15.5547 49.7024 15.3141C49.9431 15.0481 50.3484 15.0481 50.5891 15.3014ZM27.8398 27.9807L26.3198 28.8547C26.2185 28.9181 26.1171 28.9434 26.0031 28.9434C25.7878 28.9434 25.5724 28.8294 25.4585 28.6267C25.2811 28.3227 25.3825 27.9427 25.6864 27.7654L27.2064 26.8914C27.5105 26.7141 27.8904 26.8154 28.0678 27.1194C28.2451 27.4234 28.1438 27.8161 27.8398 27.9807ZM32.0831 29.6021L30.5631 30.4761C30.4618 30.5394 30.3605 30.5647 30.2465 30.5647C30.0311 30.5647 29.8158 30.4507 29.7018 30.2481C29.5245 29.9441 29.6258 29.5641 29.9298 29.3867L31.4498 28.5127C31.7538 28.3354 32.1338 28.4367 32.3111 28.7407C32.4885 29.0447 32.3871 29.4247 32.0831 29.6021ZM32.6658 24.2947L31.1458 25.1687C31.0444 25.2321 30.9431 25.2574 30.8291 25.2574C30.6138 25.2574 30.3985 25.1434 30.2845 24.9407C30.1071 24.6367 30.2084 24.2567 30.5124 24.0794L32.0324 23.2054C32.3364 23.0281 32.7165 23.1294 32.8938 23.4334C33.0711 23.7374 32.9698 24.1174 32.6658 24.2947ZM34.9078 20.5201C34.8064 20.5707 34.7051 20.6087 34.5911 20.6087C34.3758 20.6087 34.1604 20.4947 34.0464 20.2921C33.8691 19.9881 33.9705 19.6081 34.2744 19.4307L35.7944 18.5567C36.0984 18.3794 36.4784 18.4807 36.6558 18.7847C36.8331 19.0887 36.7318 19.4687 36.4278 19.6461L34.9078 20.5201ZM38.1505 24.6367L36.6305 25.5107C36.5291 25.5741 36.4278 25.5994 36.3138 25.5994C36.0984 25.5994 35.8831 25.4854 35.7691 25.2827C35.5918 24.9787 35.6931 24.5987 35.9971 24.4214L37.5171 23.5474C37.8211 23.3701 38.2011 23.4714 38.3784 23.7754C38.5558 24.0794 38.4545 24.4594 38.1505 24.6367ZM39.1385 14.8327C38.9231 14.8327 38.7078 14.7187 38.5938 14.5161C38.4165 14.2121 38.5178 13.8321 38.8218 13.6547L40.3418 12.7807C40.6458 12.6034 41.0258 12.7047 41.2031 13.0087C41.3804 13.3127 41.2791 13.6927 40.9751 13.8701L39.4551 14.7441C39.3538 14.8074 39.2524 14.8327 39.1385 14.8327ZM41.8618 19.3421L40.3418 20.2161C40.2404 20.2794 40.1391 20.3047 40.0251 20.3047C39.8098 20.3047 39.5945 20.1907 39.4804 19.9881C39.3031 19.6841 39.4044 19.3041 39.7085 19.1267L41.2285 18.2527C41.5324 18.0754 41.9124 18.1767 42.0898 18.4807C42.2671 18.7847 42.1658 19.1647 41.8618 19.3421ZM43.8125 9.99406C43.7111 10.0574 43.6098 10.0827 43.4958 10.0827C43.2804 10.0827 43.0651 9.96872 42.9511 9.76606C42.7738 9.46206 42.8751 9.08206 43.1791 8.90472L44.6991 8.03072C45.0031 7.85339 45.3831 7.95472 45.5605 8.25872C45.7378 8.56272 45.6364 8.94272 45.3324 9.12006L43.8125 9.99406ZM47.1945 13.8067L45.6744 14.6807C45.5731 14.7314 45.4718 14.7694 45.3578 14.7694C45.1424 14.7694 44.9271 14.6554 44.8131 14.4527C44.6358 14.1487 44.7371 13.7687 45.0411 13.5914L46.5611 12.7174C46.8651 12.5401 47.2451 12.6414 47.4224 12.9454C47.5998 13.2494 47.4985 13.6294 47.1945 13.8067ZM27.9158 35.3654C26.2184 35.7961 23.2418 37.1894 20.8731 41.7621C18.3778 46.5754 11.2591 53.4787 5.82512 55.1761C4.14045 55.7081 2.73445 55.7081 1.63245 55.2141C1.12578 54.1121 1.13845 52.7061 1.67045 51.0214C3.36778 45.5874 10.2711 38.4814 15.0845 35.9861C19.6571 33.6174 21.0505 30.6407 21.4811 28.9307L27.9158 35.3654ZM55.5418 21.1407C55.4151 21.2674 55.2505 21.3307 55.0984 21.3307C54.9464 21.3307 54.7818 21.2674 54.6551 21.1407L52.6158 19.1014L53.0591 18.6581C53.2111 18.5061 53.3505 18.3414 53.4771 18.1767L55.5418 20.2414C55.7951 20.5074 55.7951 20.9001 55.5418 21.1407ZM52.9958 23.6994C52.8691 23.8261 52.7044 23.8767 52.5524 23.8767C52.4004 23.8767 52.2358 23.8134 52.1091 23.6994L50.0698 21.6601L50.9564 20.7734L52.9958 22.8127C53.2365 23.0534 53.2365 23.4587 52.9958 23.6994ZM50.4371 26.2581C50.3105 26.3847 50.1585 26.4354 49.9938 26.4354C49.8291 26.4354 49.6771 26.3721 49.5504 26.2581L47.5111 24.2187L48.3978 23.3321L50.4244 25.3714C50.6778 25.6121 50.6778 26.0047 50.4371 26.2581ZM47.8784 28.8041C47.7518 28.9307 47.5998 28.9941 47.4351 28.9941C47.2705 28.9941 47.1185 28.9307 46.9918 28.8041L44.9651 26.7647L45.8518 25.8781L47.8784 27.9174C48.1318 28.1581 48.1318 28.5634 47.8784 28.8041ZM45.3324 31.3627C45.2058 31.4894 45.0411 31.5527 44.8891 31.5527C44.7371 31.5527 44.5724 31.4894 44.4458 31.3627L42.4064 29.3234L43.2931 28.4367L45.3324 30.4761C45.5731 30.7167 45.5731 31.1221 45.3324 31.3627ZM42.7738 33.0221C43.0145 33.2627 43.0145 33.6681 42.7738 33.9087C42.6471 34.0354 42.4825 34.0987 42.3305 34.0987C42.1658 34.0987 42.0138 34.0354 41.8871 33.9087L39.8478 31.8694L40.7345 30.9827L42.7738 33.0221ZM40.2278 35.5807C40.4811 35.8341 40.4811 36.2267 40.2278 36.4674C40.1011 36.5941 39.9491 36.6574 39.7845 36.6574C39.6198 36.6574 39.4678 36.5941 39.3411 36.4674L37.3144 34.4407L38.2011 33.5541L40.2278 35.5807ZM38.6571 3.36939C38.4925 3.49606 38.3278 3.63539 38.1758 3.78739L37.7324 4.23072L35.9971 2.49539C35.7438 2.25472 35.7438 1.84939 35.9971 1.60872C36.2378 1.36806 36.6431 1.36806 36.8838 1.60872L38.6571 3.36939ZM37.6691 38.1267C37.9098 38.3674 37.9098 38.7727 37.6691 39.0134C37.5424 39.1401 37.3778 39.2034 37.2258 39.2034C37.0738 39.2034 36.9091 39.1401 36.7824 39.0134L34.7178 36.9487C34.8825 36.8221 35.0471 36.6827 35.1991 36.5307L35.6424 36.0874L37.6691 38.1267ZM36.0731 5.89006L35.1864 6.77672L33.4384 5.04139C33.1978 4.80072 33.1978 4.39539 33.4384 4.15472C33.6791 3.91406 34.0844 3.91406 34.3251 4.15472L36.0731 5.89006ZM33.5145 8.44872L32.6278 9.34806L30.8924 7.60006C30.6518 7.35939 30.6518 6.95406 30.8924 6.71339C31.1331 6.47272 31.5384 6.47272 31.7791 6.71339L33.5145 8.44872ZM30.9684 10.9947L30.0818 11.8814L28.3465 10.1461C28.1058 9.90539 28.1058 9.50006 28.3465 9.25939C28.5871 9.01872 28.9925 9.01872 29.2331 9.25939L30.9684 10.9947ZM28.4098 13.5534L27.5231 14.4401L25.7878 12.7047C25.5471 12.4641 25.5471 12.0587 25.7878 11.8181C26.0285 11.5774 26.4338 11.5774 26.6744 11.8181L28.4098 13.5534ZM25.8638 16.1121L24.9771 16.9987L23.2418 15.2634C23.0011 15.0227 23.0011 14.6174 23.2418 14.3767C23.4825 14.1361 23.8878 14.1361 24.1285 14.3767L25.8638 16.1121ZM23.3051 18.6581L22.4184 19.5447L20.6831 17.8094C20.4424 17.5687 20.4424 17.1634 20.6831 16.9101C20.9238 16.6694 21.3291 16.6694 21.5698 16.9101L23.3051 18.6581ZM20.7465 21.2167L20.3031 21.6601C20.1511 21.8121 20.0118 21.9641 19.8851 22.1414L18.1118 20.3681C17.8711 20.1274 17.8711 19.7221 18.1118 19.4814C18.3524 19.2407 18.7578 19.2407 18.9984 19.4814L20.7465 21.2167Z" fill="#C2A74E"/>
</svg>
