<svg width="54" height="57" viewBox="0 0 54 57" fill="none" xmlns="http://www.w3.org/2000/svg">
<path d="M30.9544 32.7317C33.5453 32.2136 36.568 31.609 37.7771 27.8954C41.8362 29.4499 42.3544 31.0045 42.9589 32.6454C43.218 33.509 43.5635 34.459 44.3407 35.3227C44.7725 35.8408 45.7225 36.6181 46.5862 37.3954L24.4771 37.6545L25.6862 35.409C26.3771 35.5817 27.4998 35.8408 29.3135 35.8408C31.818 35.8408 35.5316 35.3226 40.5407 33.509C40.9725 33.3363 41.2316 32.8181 41.0589 32.3863C40.8862 31.9545 40.368 31.6954 39.9362 31.8681C33.4589 34.1999 29.3998 34.1999 27.4135 33.9408C28.4498 33.2499 29.6589 32.9908 30.9544 32.7317ZM48.6589 54.409C48.1407 54.9272 47.4498 55.2727 46.7589 55.2727L28.1044 55.0999C27.3271 55.0999 26.6362 54.7545 26.2044 54.2363C22.5771 50.0908 20.5907 45.3408 20.7635 41.7999C20.8498 40.5045 21.9725 39.3817 23.268 39.3817L51.4225 39.1227C52.718 39.1227 53.8407 40.0726 53.9271 41.2817C54.4453 44.9954 52.3725 50.0908 48.6589 54.409ZM20.9362 2.67719C20.9362 2.93628 20.8498 3.28174 20.6771 3.54083L15.8407 11.9181L14.1135 10.9681L17.3953 2.07265C17.7407 1.03628 19.0362 0.604465 19.9862 1.12265C20.5907 1.4681 20.9362 2.07265 20.9362 2.67719ZM26.118 6.82265L20.9362 14.9408L19.2953 13.9908L22.9225 5.18174C23.3544 4.14537 24.5635 3.79992 25.5135 4.3181C26.3771 4.83628 26.6362 5.95901 26.118 6.82265ZM31.5589 10.1045L26.0316 17.8772L24.3907 16.9272L28.5362 8.29083C28.968 7.34083 30.0907 6.99538 30.9544 7.51356C31.9044 8.03174 32.1635 9.24083 31.5589 10.1045ZM36.9998 13.3863L31.1271 20.8999L29.3998 19.8636L33.9771 11.3999C34.4953 10.5363 35.618 10.1908 36.4816 10.709C37.4316 11.3136 37.6907 12.5226 36.9998 13.3863ZM0.899817 52.509C0.813453 50.2636 4.78618 40.5908 11.9544 26.9454C12.7316 27.7227 13.6816 28.4999 14.718 29.1045C15.7544 29.709 16.7907 30.1408 17.9135 30.4863C9.62254 43.1817 2.97254 51.4726 0.899817 52.509ZM30.9544 25.0454C28.5362 27.7227 25.0816 29.1908 21.6271 29.1908C19.5544 29.1908 17.4816 28.6726 15.668 27.5499C10.7453 24.6999 8.58618 18.4817 10.3998 12.8681C10.5725 12.2636 11.1771 11.8317 11.868 11.8317C12.1271 11.8317 12.3862 11.9181 12.6453 12.0045L30.6089 22.5408C31.0407 22.7999 31.2998 23.1454 31.3862 23.6636C31.3862 24.1817 31.2135 24.6999 30.9544 25.0454Z" fill="#C2A74E"/>
</svg>
